<svg width="40" height="40" viewBox="0 0 40 40" fill="none" xmlns="http://www.w3.org/2000/svg">
<path fill-rule="evenodd" clip-rule="evenodd" d="M27.8297 18.6426L27.8294 18.6424L27.8297 18.6422L27.8297 18.6426ZM27.8294 18.6424C26.6922 19.8025 25.3417 20.6656 23.8709 21.2208V23.2255H25.1612V24.5158H23.8709V36.1287C23.8709 38.2635 22.1347 39.9997 19.9999 39.9997C17.8651 39.9997 16.1289 38.2635 16.1289 36.1287V24.5158H14.8386V23.2255H16.1289V21.2166C11.989 19.6468 9.03214 15.6514 9.03214 10.9677C9.03214 10.2503 9.10443 9.52389 9.247 8.80903L10.5123 9.06191C10.3864 9.69358 10.3225 10.335 10.3225 10.9678C10.3225 16.3039 14.6638 20.6452 19.9999 20.6452C22.6174 20.6452 25.0701 19.6129 26.9083 17.7394L27.8294 18.6424ZM22.5805 36.1291C22.5805 37.5522 21.423 38.7097 19.9999 38.7097C18.5768 38.7097 17.4192 37.5522 17.4192 36.1291V24.5162H22.5805V36.1291ZM17.4192 23.2258H22.5805V21.6187C21.7444 21.82 20.8824 21.9355 19.9999 21.9355C19.1096 21.9355 18.2481 21.8174 17.4192 21.6161V23.2258Z" fill="#D3662D"/>
<path d="M20 1.29033C25.3361 1.29033 29.6774 5.63164 29.6774 10.9678C29.6774 11.6005 29.6134 12.2419 29.4876 12.8736L30.7528 13.1265C30.8954 12.4116 30.9677 11.6852 30.9677 10.9678C30.9677 4.92002 26.0477 5.34058e-05 19.9999 5.34058e-05C17.0328 5.34058e-05 14.2528 1.16968 12.1703 3.29296L13.0916 4.19619C14.9298 2.32264 17.3825 1.29038 20 1.29038L20 1.29033Z" fill="#D3662D"/>
<path fill-rule="evenodd" clip-rule="evenodd" d="M34.8387 2.58065C34.8387 1.15753 35.9962 0 37.4193 0C38.8425 1.47466e-05 40 1.15755 40 2.58066C40 4.00378 38.8425 5.16131 37.4193 5.16131C37.267 5.16131 37.1207 5.14202 36.9755 5.11609L32.5833 14.778C33.1671 15.2519 33.5484 15.9658 33.5484 16.7743C33.5484 18.1974 32.3909 19.3549 30.9678 19.3549C29.5446 19.3549 28.3871 18.1974 28.3871 16.7743C28.3871 16.5684 28.4174 16.3705 28.4631 16.1787L21.8975 12.7025C21.4257 13.2187 20.7529 13.5485 20 13.5485C18.5769 13.5485 17.4194 12.3909 17.4194 10.9678C17.4194 10.7619 17.4496 10.564 17.4954 10.3722L10.9297 6.89606C10.458 7.41222 9.78516 7.742 9.03227 7.742C8.76184 7.742 8.50637 7.68843 8.26213 7.61153L4.44845 13.7129C4.8871 14.1755 5.1613 14.7968 5.1613 15.484C5.1613 16.9071 4.00377 18.0646 2.58065 18.0646C1.15753 18.0646 0 16.9071 0 15.484C0 14.0609 1.15753 12.9033 2.58065 12.9033C2.85108 12.9033 3.10655 12.9569 3.35079 13.0338L7.16447 6.93242C6.72582 6.46982 6.45162 5.84856 6.45162 5.16135C6.45162 3.73823 7.60916 2.5807 9.03227 2.5807C10.4554 2.5807 11.6129 3.73823 11.6129 5.16135C11.6129 5.36728 11.5827 5.56515 11.5369 5.75755L18.1026 9.23309C18.5743 8.71694 19.2471 8.38716 20 8.38716C21.4231 8.38716 22.5807 9.54469 22.5807 10.9678C22.5807 11.1737 22.5504 11.3716 22.5046 11.5634L29.0703 15.0396C29.5421 14.5234 30.2149 14.1936 30.9678 14.1936C31.1201 14.1936 31.2664 14.2129 31.4116 14.2388L35.8039 4.57689C35.22 4.10309 34.8387 3.38913 34.8387 2.58065ZM1.29026 15.4839C1.29026 16.1956 1.86889 16.7742 2.58058 16.7742C3.29227 16.7742 3.87091 16.1956 3.87091 15.4839C3.87091 14.7722 3.29227 14.1936 2.58058 14.1936C1.86889 14.1936 1.29026 14.7722 1.29026 15.4839ZM9.03221 6.45162C8.32051 6.45162 7.74188 5.87299 7.74188 5.1613C7.74188 4.44961 8.32051 3.87097 9.03221 3.87097C9.7439 3.87097 10.3225 4.44961 10.3225 5.1613C10.3225 5.87299 9.7439 6.45162 9.03221 6.45162ZM18.7096 10.9678C18.7096 11.6795 19.2883 12.2581 20 12.2581C20.7117 12.2581 21.2903 11.6795 21.2903 10.9678C21.2903 10.2561 20.7117 9.67744 20 9.67744C19.2883 9.67744 18.7096 10.2561 18.7096 10.9678ZM30.9677 18.0645C30.256 18.0645 29.6774 17.4859 29.6774 16.7742C29.6774 16.0625 30.256 15.4839 30.9677 15.4839C31.6794 15.4839 32.2581 16.0625 32.2581 16.7742C32.2581 17.4859 31.6794 18.0645 30.9677 18.0645ZM36.129 2.58065C36.129 3.29234 36.7077 3.87097 37.4193 3.87097C38.131 3.87097 38.7097 3.29234 38.7097 2.58065C38.7097 1.86896 38.131 1.29032 37.4193 1.29032C36.7077 1.29032 36.129 1.86896 36.129 2.58065Z" fill="#D3662D"/>
<path d="M28.1526 12.9114C28.3087 12.2573 28.3874 11.6029 28.3874 10.9681C28.3874 6.34368 24.6247 2.58102 20.0002 2.58102C17.6578 2.58102 15.4023 3.57899 13.8124 5.31982L14.7652 6.19024C16.1111 4.71647 18.0196 3.87142 20.0002 3.87142C23.9132 3.87142 27.097 7.0552 27.097 10.9682C27.097 11.5031 27.0299 12.0561 26.8972 12.6122L28.1526 12.9114Z" fill="#D3662D"/>
<path d="M11.8473 9.02416C11.6912 9.67825 11.6126 10.3326 11.6126 10.9674C11.6126 15.5918 15.3752 19.3545 19.9997 19.3545C22.3422 19.3545 24.5976 18.3565 26.1875 16.6157L25.2347 15.7453C23.8888 17.2191 21.9804 18.0641 19.9997 18.0641C16.0867 18.0641 12.9029 14.8803 12.9029 10.9673C12.9029 10.4325 12.97 9.87946 13.1028 9.3233L11.8473 9.02416Z" fill="#D3662D"/>
</svg>
